<svg width="32" height="32" viewBox="0 0 32 32" fill="none" xmlns="http://www.w3.org/2000/svg">
  <rect width="32" height="32" rx="6" fill="#0070f3"/>
  <path d="M8 24V8h6.4c1.6 0 2.933.467 4 1.4 1.067.933 1.6 2.133 1.6 3.6 0 .8-.2 1.533-.6 2.2-.4.667-.933 1.2-1.6 1.6.8.333 1.433.867 1.9 1.6.467.733.7 1.567.7 2.5 0 1.6-.533 2.867-1.6 3.8C17.333 25.533 16 26 14.4 26H8zm3.2-10.4h2.8c.533 0 .967-.167 1.3-.5.333-.333.5-.767.5-1.3s-.167-.967-.5-1.3c-.333-.333-.767-.5-1.3-.5h-2.8v3.6zm0 7.2h3.2c.533 0 .967-.167 1.3-.5.333-.333.5-.767.5-1.3s-.167-.967-.5-1.3c-.333-.333-.767-.5-1.3-.5h-3.2v3.6z" fill="white"/>
</svg>