<?xml version="1.0" encoding="UTF-8"?>
<svg version="1.1" xmlns="http://www.w3.org/2000/svg" width="512" height="512">
<path d="M0 0 C168.96 0 337.92 0 512 0 C512 168.96 512 337.92 512 512 C343.04 512 174.08 512 0 512 C0 343.04 0 174.08 0 0 Z " fill="#000000" transform="translate(0,0)"/>
<path d="M0 0 C0.73253998 -0.00014603 1.46507996 -0.00029205 2.21981812 -0.0004425 C4.61671007 0.00024853 7.01352218 0.00800263 9.41040039 0.01586914 C11.08191383 0.0177362 12.75342783 0.01915874 14.42494202 0.02015686 C18.80609673 0.02395936 23.18721785 0.0337701 27.56835938 0.04486084 C32.04630072 0.05512389 36.52424753 0.05966493 41.00219727 0.06469727 C49.77499907 0.07539456 58.54777367 0.09244352 67.32055664 0.11352539 C66.7709376 4.68747209 66.22484854 9.01668509 64.94555664 13.45336914 C64.68258789 14.37053711 64.41961914 15.28770508 64.14868164 16.23266602 C63.87540039 17.16272461 63.60211914 18.0927832 63.32055664 19.05102539 C62.91063477 20.48671875 62.91063477 20.48671875 62.49243164 21.95141602 C60.45845 28.97563203 60.45845 28.97563203 59.32055664 30.11352539 C57.37971396 30.2266934 55.43478979 30.27036828 53.49072266 30.28710938 C52.24174698 30.30059921 50.9927713 30.31408905 49.70594788 30.32798767 C48.69713405 30.33557759 48.69713405 30.33557759 47.66794014 30.34332085 C45.56051506 30.35972773 43.45326861 30.38297292 41.34593201 30.40821838 C35.35196887 30.47894802 29.35792666 30.53869606 23.36376953 30.59033203 C19.69907426 30.62238365 16.03457424 30.66373936 12.37003899 30.71052742 C10.98000599 30.72641313 9.58992793 30.73879562 8.19983101 30.74743462 C-6.71426562 30.84134038 -17.62710227 32.42460197 -28.92944336 42.73852539 C-36.89626606 51.14078172 -41.20586007 62.52428273 -40.92163086 74.01977539 C-39.97502343 86.11192186 -37.15736899 95.35021333 -27.95288086 103.53930664 C-23.13996123 107.65522331 -23.13996123 107.65522331 -17.24584961 109.12524414 C-13.75754825 107.75009946 -11.09798328 105.60585708 -8.24194336 103.23852539 C-7.01050292 102.24202321 -5.77872139 101.24594242 -4.54663086 100.25024414 C-3.91466797 99.73510254 -3.28270508 99.21996094 -2.6315918 98.68920898 C-0.6681139 97.10438078 1.31678373 95.55172323 3.31274414 94.00805664 C3.95284424 93.51225098 4.59294434 93.01644531 5.25244141 92.50561523 C6.48844103 91.54961293 7.72586878 90.59545365 8.96484375 89.64331055 C12.11187898 87.28897178 12.11187898 87.28897178 14.32055664 84.11352539 C7.06055664 84.11352539 -0.19944336 84.11352539 -7.67944336 84.11352539 C-6.22724197 73.94811563 -3.27146652 64.04961418 -0.67944336 54.11352539 C16.81055664 54.11352539 34.30055664 54.11352539 52.32055664 54.11352539 C50.30289553 63.52927726 48.16751711 72.73939976 45.57055664 81.98852539 C45.05428711 83.84417114 45.05428711 83.84417114 44.52758789 85.73730469 C41.22533407 97.55904074 37.78783111 109.33923917 34.32055664 121.11352539 C44.22055664 121.11352539 54.12055664 121.11352539 64.32055664 121.11352539 C63.19461961 130.12102164 63.19461961 130.12102164 61.94555664 134.23461914 C61.68258789 135.10666992 61.41961914 135.9787207 61.14868164 136.87719727 C60.87540039 137.75956055 60.60211914 138.64192383 60.32055664 139.55102539 C60.04727539 140.46045898 59.77399414 141.36989258 59.49243164 142.30688477 C57.46129912 148.97278291 57.46129912 148.97278291 56.32055664 150.11352539 C54.51000639 150.20728592 52.69578463 150.23096649 50.8828125 150.22705078 C49.72168442 150.22697525 48.56055634 150.22689972 47.36424255 150.2268219 C45.46896568 150.21907997 45.46896568 150.21907997 43.53540039 150.21118164 C42.24944473 150.20976669 40.96348907 150.20835175 39.63856506 150.20689392 C36.21412221 150.20306957 32.78972155 150.19324001 29.36529541 150.18218994 C25.87317475 150.17197403 22.3810473 150.16739592 18.88891602 150.16235352 C12.03277886 150.15161766 5.17666977 150.13454223 -1.67944336 150.11352539 C-0.67553711 141.58227539 -0.67553711 141.58227539 0.29321289 137.83227539 C0.47045898 137.13618164 0.64770508 136.44008789 0.83032227 135.72290039 C1.01272461 135.02680664 1.19512695 134.33071289 1.38305664 133.61352539 C1.56932617 132.88649414 1.7555957 132.15946289 1.94750977 131.41040039 C2.40082119 129.64364815 2.86005684 127.87841764 3.32055664 126.11352539 C2.57334351 126.75753296 2.57334351 126.75753296 1.81103516 127.41455078 C-0.47721 129.36150374 -2.79588797 131.26833369 -5.11694336 133.17602539 C-5.90004883 133.85213867 -6.6831543 134.52825195 -7.48999023 135.22485352 C-14.20391072 140.66782609 -14.20391072 140.66782609 -19.44116211 140.14868164 C-20.86434244 139.84949827 -22.27982401 139.50851732 -23.67944336 139.11352539 C-24.63592773 138.87375977 -25.59241211 138.63399414 -26.57788086 138.38696289 C-43.00936443 132.42601459 -57.25553201 120.8777034 -65.17944336 105.13305664 C-66.47208419 102.15921329 -67.60298889 99.17163469 -68.67944336 96.11352539 C-68.99913086 95.31172852 -69.31881836 94.50993164 -69.64819336 93.68383789 C-75.68901146 76.17665209 -71.79706922 56.03820915 -63.99194336 39.86352539 C-54.96128412 22.23948094 -40.10104644 10.04807038 -21.74584961 2.98461914 C-14.57645213 0.72576788 -7.51082838 -0.01266582 0 0 Z " fill="#0044BA" transform="translate(109.679443359375,171.886474609375)"/>
<path d="M0 0 C5.83521917 4.69866817 8.35143085 8.95354648 9.64453125 16.32421875 C6.01453125 16.32421875 2.38453125 16.32421875 -1.35546875 16.32421875 C-1.78859375 15.37546875 -2.22171875 14.42671875 -2.66796875 13.44921875 C-4.14849076 10.12379938 -4.14849076 10.12379938 -7.35546875 8.32421875 C-13.21726864 7.58956045 -18.57215776 7.10037787 -23.54296875 10.51171875 C-27.81278161 17.13729043 -28.32407485 23.09862956 -26.890625 30.83203125 C-25.8031145 34.73162511 -24.67711801 36.98648702 -21.85546875 39.94921875 C-16.33935 42.1162654 -10.66939127 41.55676537 -5.12890625 39.49609375 C-3.00518029 38.0927506 -2.48075628 37.06249508 -1.60546875 34.69921875 C-1.19296875 33.58546875 -0.78046875 32.47171875 -0.35546875 31.32421875 C-4.64546875 31.32421875 -8.93546875 31.32421875 -13.35546875 31.32421875 C-13.35546875 28.35421875 -13.35546875 25.38421875 -13.35546875 22.32421875 C-5.76546875 22.32421875 1.82453125 22.32421875 9.64453125 22.32421875 C9.64453125 31.56421875 9.64453125 40.80421875 9.64453125 50.32421875 C7.00453125 50.32421875 4.36453125 50.32421875 1.64453125 50.32421875 C1.14953125 47.35421875 1.14953125 47.35421875 0.64453125 44.32421875 C-0.24234375 45.10796875 -1.12921875 45.89171875 -2.04296875 46.69921875 C-6.9859514 51.06743597 -12.01585483 51.84728216 -18.44140625 51.69140625 C-24.42648627 50.93725408 -29.31258214 48.69512984 -33.27734375 44.09375 C-37.70767931 37.62756976 -38.55885723 32.75346745 -38.60546875 25.07421875 C-38.62609375 24.24019531 -38.64671875 23.40617187 -38.66796875 22.546875 C-38.72188369 13.96092153 -36.11501557 8.34885958 -30.21484375 2.05859375 C-22.77071675 -4.88508774 -8.56294172 -5.31685924 0 0 Z " fill="#0042B9" transform="translate(239.35546875,191.67578125)"/>
<path d="M0 0 C4.94723636 2.83629152 7.23156244 6.02169362 9.640625 11.12890625 C10.135625 12.11890625 10.135625 12.11890625 10.640625 13.12890625 C10.640625 15.76890625 10.640625 18.40890625 10.640625 21.12890625 C1.400625 21.12890625 -7.839375 21.12890625 -17.359375 21.12890625 C-16.23861666 27.86777707 -16.23861666 27.86777707 -13.171875 29.62890625 C-9.55099332 30.27261855 -6.92563543 30.03668163 -3.359375 29.12890625 C-2.740625 28.44828125 -2.121875 27.76765625 -1.484375 27.06640625 C1.51346638 24.33308029 3.89283639 24.81126418 7.8125 24.98828125 C8.41578125 25.0346875 9.0190625 25.08109375 9.640625 25.12890625 C9.21909167 29.90628394 7.03656584 32.90877706 3.640625 36.12890625 C-1.5875843 39.86334146 -7.16029303 39.93198965 -13.359375 39.12890625 C-18.76048535 37.34199684 -22.18273338 33.66696571 -25.359375 29.12890625 C-27.78681581 24.04283979 -28.18944754 18.66557567 -27.359375 13.12890625 C-25.06610213 7.46954188 -21.25201297 3.63884219 -16.359375 0.12890625 C-11.09387166 -1.62626153 -5.26334027 -1.94325311 0 0 Z " fill="#0041B8" transform="translate(281.359375,203.87109375)"/>
<path d="M0 0 C4.76151547 2.49315402 7.62166172 5.93249605 10.1328125 10.578125 C10.8828125 13.265625 10.8828125 13.265625 10.8828125 21.265625 C1.6428125 21.265625 -7.5971875 21.265625 -17.1171875 21.265625 C-14.6969384 26.89669261 -14.6969384 26.89669261 -12.1171875 29.265625 C-8.18159239 30.23095965 -5.97566367 30.65753804 -2.2421875 28.953125 C-0.0275944 27.43837337 -0.0275944 27.43837337 0.8828125 25.265625 C3.8528125 25.265625 6.8228125 25.265625 9.8828125 25.265625 C9.46127917 30.04300269 7.27875334 33.04549581 3.8828125 36.265625 C-1.32282214 39.98393546 -6.94108562 40.19423039 -13.1171875 39.265625 C-18.75108445 37.07206113 -22.32146315 33.64201798 -25.1171875 28.265625 C-27.59264187 22.01804968 -27.80070468 16.30751753 -25.2109375 10.08984375 C-19.91017371 0.5807033 -10.60140983 -3.67724179 0 0 Z " fill="#0042B8" transform="translate(362.1171875,203.734375)"/>
<path d="M0 0 C4.23847442 2.35193776 6.14792646 4.63127937 7.6875 9.25 C7.7708804 11.38794525 7.79483747 13.52842009 7.78515625 15.66796875 C7.78193359 16.92158203 7.77871094 18.17519531 7.77539062 19.46679688 C7.76282227 21.43229492 7.76282227 21.43229492 7.75 23.4375 C7.74498317 24.77278481 7.74042059 26.10807141 7.73632812 27.44335938 C7.72452695 30.71228473 7.70806297 33.98111991 7.6875 37.25 C4.3875 37.25 1.0875 37.25 -2.3125 37.25 C-2.6425 36.59 -2.9725 35.93 -3.3125 35.25 C-3.828125 35.724375 -4.34375 36.19875 -4.875 36.6875 C-8.12949975 38.77371779 -10.45265815 39.1191579 -14.3125 39.25 C-18.27800037 37.92816654 -21.75065291 36.66579611 -24.3125 33.25 C-25.7123176 29.0505472 -26.35645617 25.45785623 -24.39453125 21.30859375 C-21.3137282 16.9810141 -18.45118832 15.72318895 -13.25 14.8125 C-9.58358015 14.36422473 -6.00463058 14.18902904 -2.3125 14.25 C-2.9725 12.27 -3.6325 10.29 -4.3125 8.25 C-6.9525 8.25 -9.5925 8.25 -12.3125 8.25 C-12.9725 9.57 -13.6325 10.89 -14.3125 12.25 C-17.6125 12.25 -20.9125 12.25 -24.3125 12.25 C-23.85905595 7.37547646 -22.84162227 4.68625063 -19.3125 1.25 C-12.71823043 -2.42757342 -6.80813945 -3.15468733 0 0 Z " fill="#0041B7" transform="translate(266.3125,268.75)"/>
<path d="M0 0 C3.3 0 6.6 0 10 0 C10.33 5.94 10.66 11.88 11 18 C12.98 16.68 14.96 15.36 17 14 C22.18923924 13.3513451 25.68266618 14.0258367 30 17 C35.32701115 23.6274569 34.45892236 30.78657149 34.25 38.9375 C34.22990673 40.30270821 34.21166094 41.66794493 34.1953125 43.03320312 C34.14834433 46.35620134 34.08266726 49.67772992 34 53 C30.7 53 27.4 53 24 53 C23.98018066 52.19256348 23.96036133 51.38512695 23.93994141 50.55322266 C23.84494101 46.91014125 23.73516088 43.26765314 23.625 39.625 C23.5940625 38.35398437 23.563125 37.08296875 23.53125 35.7734375 C23.49257813 34.56171875 23.45390625 33.35 23.4140625 32.1015625 C23.3826416 30.98088379 23.3512207 29.86020508 23.31884766 28.70556641 C23.26588797 25.85289588 23.26588797 25.85289588 21 24 C17.46737213 23.53922245 15.71176732 23.45320546 12.84277344 25.65722656 C10.54762411 28.57511911 10.46574786 30.17835484 10.390625 33.859375 C10.35839844 34.97441406 10.32617188 36.08945312 10.29296875 37.23828125 C10.27169922 38.97658203 10.27169922 38.97658203 10.25 40.75 C10.22035156 41.92433594 10.19070313 43.09867187 10.16015625 44.30859375 C10.08949273 47.20579822 10.03677734 50.10219955 10 53 C6.7 53 3.4 53 0 53 C0 35.51 0 18.02 0 0 Z " fill="#0043BD" transform="translate(400,253)"/>
<path d="M0 0 C4.18134123 1.5486449 6.75972236 3.10899147 9 7 C10.15869662 10.5114433 10.11437556 13.83737599 10.09765625 17.515625 C10.09443359 18.76601562 10.09121094 20.01640625 10.08789062 21.3046875 C10.07532227 23.25761719 10.07532227 23.25761719 10.0625 25.25 C10.05798828 26.56742188 10.05347656 27.88484375 10.04882812 29.2421875 C10.03704316 32.49483741 10.02059011 35.74739584 10 39 C6.37 39 2.74 39 -1 39 C-1.02505615 38.15703369 -1.0501123 37.31406738 -1.07592773 36.44555664 C-1.17088155 33.32758326 -1.27012448 30.20978497 -1.37231445 27.09204102 C-1.41571223 25.74085853 -1.4573837 24.38961947 -1.49731445 23.03833008 C-1.55489952 21.09963299 -1.61914298 19.16113724 -1.68359375 17.22265625 C-1.72025146 16.05484619 -1.75690918 14.88703613 -1.79467773 13.68383789 C-1.70076188 11.08220205 -1.70076188 11.08220205 -3 10 C-7.03083011 9.67539739 -7.03083011 9.67539739 -11 10 C-13.29174077 13.43761116 -13.29524047 14.92071615 -13.4140625 18.98046875 C-13.47207031 20.72553711 -13.47207031 20.72553711 -13.53125 22.50585938 C-13.57765625 24.32827148 -13.57765625 24.32827148 -13.625 26.1875 C-13.68300781 28.02731445 -13.68300781 28.02731445 -13.7421875 29.90429688 C-13.83656103 32.93604656 -13.92214549 35.96778841 -14 39 C-17.63 39 -21.26 39 -25 39 C-25 26.46 -25 13.92 -25 1 C-21.7 1 -18.4 1 -15 1 C-14.67 1.99 -14.34 2.98 -14 4 C-13.360625 3.34 -12.72125 2.68 -12.0625 2 C-7.9393757 -0.6926526 -4.79808241 -0.7023648 0 0 Z " fill="#0040B4" transform="translate(321,203)"/>
<path d="M0 0 C5.22133451 1.84282395 7.33813876 4.20569684 10 9 C10.45410156 12.43505859 10.45410156 12.43505859 10.390625 16.1484375 C10.38496521 16.80582916 10.37930542 17.46322083 10.37347412 18.14053345 C10.35126275 20.21946191 10.3011042 22.29660163 10.25 24.375 C10.22991489 25.79294368 10.21166765 27.21091465 10.1953125 28.62890625 C10.15145067 32.08650877 10.08253437 35.54307951 10 39 C6.7 39 3.4 39 0 39 C-0.01981934 38.19256348 -0.03963867 37.38512695 -0.06005859 36.55322266 C-0.15505899 32.91014125 -0.26483912 29.26765314 -0.375 25.625 C-0.4059375 24.35398437 -0.436875 23.08296875 -0.46875 21.7734375 C-0.50742187 20.56171875 -0.54609375 19.35 -0.5859375 18.1015625 C-0.6173584 16.98088379 -0.6487793 15.86020508 -0.68115234 14.70556641 C-0.73411203 11.85289588 -0.73411203 11.85289588 -3 10 C-7.0583427 9.52974278 -7.0583427 9.52974278 -10.65942383 11.14575195 C-12.55505146 13.7677319 -12.43331108 15.76575426 -12.51171875 18.98046875 C-12.54716797 20.14384766 -12.58261719 21.30722656 -12.61914062 22.50585938 C-12.65297852 24.32827148 -12.65297852 24.32827148 -12.6875 26.1875 C-12.72166016 27.41404297 -12.75582031 28.64058594 -12.79101562 29.90429688 C-12.8735941 32.93610678 -12.94271369 35.96762379 -13 39 C-16.63 39 -20.26 39 -24 39 C-24 26.46 -24 13.92 -24 1 C-20.7 1 -17.4 1 -14 1 C-13.67 1.99 -13.34 2.98 -13 4 C-12.154375 3.34 -11.30875 2.68 -10.4375 2 C-6.45336991 -0.31803932 -4.53455517 -0.5668194 0 0 Z " fill="#0041B5" transform="translate(344,267)"/>
<path d="M0 0 C3.3 0 6.6 0 10 0 C10.02505615 0.73114014 10.0501123 1.46228027 10.07592773 2.21557617 C10.19222641 5.53971417 10.31479928 8.86359241 10.4375 12.1875 C10.47681641 13.33798828 10.51613281 14.48847656 10.55664062 15.67382812 C10.61948242 17.34155273 10.61948242 17.34155273 10.68359375 19.04296875 C10.72025146 20.06414795 10.75690918 21.08532715 10.79467773 22.13745117 C10.98840063 24.83828463 11.40451953 27.36166128 12 30 C13.45945288 29.91291331 14.91765868 29.80473093 16.375 29.6875 C17.18710937 29.62949219 17.99921875 29.57148438 18.8359375 29.51171875 C21.37921338 29.17009472 21.37921338 29.17009472 23 26 C23.36798693 23.28924456 23.36798693 23.28924456 23.4140625 20.23828125 C23.45273437 19.12001953 23.49140625 18.00175781 23.53125 16.84960938 C23.5621875 15.68236328 23.593125 14.51511719 23.625 13.3125 C23.66367187 12.13365234 23.70234375 10.95480469 23.7421875 9.74023438 C23.83654391 6.82698023 23.92213161 3.91373393 24 1 C27.3 1 30.6 1 34 1 C34 13.21 34 25.42 34 38 C31.03 38 28.06 38 25 38 C24.67 37.01 24.34 36.02 24 35 C23.34 35.639375 22.68 36.27875 22 36.9375 C18.30242088 39.47958565 15.46201161 40.21915578 11 40 C5.63663248 38.1434497 2.52750556 35.05501111 0 30 C-0.08573394 27.74879258 -0.10712188 25.49500697 -0.09765625 23.2421875 C-0.0962413 22.57913605 -0.09482635 21.91608459 -0.09336853 21.23294067 C-0.08776754 19.11358137 -0.075215 16.99432741 -0.0625 14.875 C-0.05748512 13.43880361 -0.05292219 12.00260556 -0.04882812 10.56640625 C-0.03779782 7.04423655 -0.02053259 3.52212855 0 0 Z " fill="#0042BB" transform="translate(280,268)"/>
<path d="M0 0 C3.43449086 2.34169831 5.37416935 4.45100877 7.75 7.875 C7.75 9.195 7.75 10.515 7.75 11.875 C4.71808711 12.10382361 1.77356348 12.24545462 -1.25 11.875 C-2.75 9.875 -2.75 9.875 -4.25 7.875 C-7.27356348 7.50454538 -10.21808711 7.64617639 -13.25 7.875 C-13.25 9.195 -13.25 10.515 -13.25 11.875 C-10.1260711 13.64962628 -7.42003657 14.26342635 -3.875 14.75 C1.01374124 15.57350454 3.96636999 16.68878525 7.75 19.875 C9.35167908 23.07835815 9.09898532 26.39185804 8.75 29.875 C7.39711996 33.5954201 5.52552598 35.25211928 2.1875 37.1875 C-3.17252284 39.61133386 -8.62561757 39.8345984 -14.30078125 38.33203125 C-18.02465812 36.88872994 -20.87108404 35.07738687 -23.25 31.875 C-24 28.625 -24 28.625 -24.25 25.875 C-21.21608864 25.6416222 -18.27673937 25.5158058 -15.25 25.875 C-13.89631404 27.18766518 -12.56200404 28.52067325 -11.25 29.875 C-8.49579159 30.23866247 -6.04367216 30.06124481 -3.25 29.875 C-2.92 28.225 -2.59 26.575 -2.25 24.875 C-3.34699219 24.64425781 -4.44398438 24.41351563 -5.57421875 24.17578125 C-7.02886273 23.84731325 -8.48327826 23.51783235 -9.9375 23.1875 C-10.65873047 23.03861328 -11.37996094 22.88972656 -12.12304688 22.73632812 C-17.11438796 21.57396102 -20.02114128 20.08438254 -23.25 15.875 C-24.34593355 12.16816593 -24.06374082 8.50248164 -22.328125 5.03125 C-16.98593945 -2.04541138 -7.8950543 -2.73290341 0 0 Z " fill="#0042B9" transform="translate(454.25,204.125)"/>
<path d="M0 0 C2.4375 1.875 2.4375 1.875 4 4 C4.25 6.75 4.25 6.75 4 9 C-1.95703125 9.29296875 -1.95703125 9.29296875 -4 9 C-4.4846875 8.505 -4.969375 8.01 -5.46875 7.5 C-6.91723419 5.77990516 -6.91723419 5.77990516 -9.26171875 5.70703125 C-10.06222656 5.74183594 -10.86273438 5.77664062 -11.6875 5.8125 C-12.89986328 5.85310547 -12.89986328 5.85310547 -14.13671875 5.89453125 C-14.75160156 5.92933594 -15.36648438 5.96414062 -16 6 C-16 7.65 -16 9.3 -16 11 C-14.48019531 11.25523437 -14.48019531 11.25523437 -12.9296875 11.515625 C-11.57799199 11.75968113 -10.22643662 12.00451432 -8.875 12.25 C-8.20984375 12.35957031 -7.5446875 12.46914062 -6.859375 12.58203125 C-2.13247484 13.46253226 1.14467139 14.9766724 5 18 C6.60167908 21.20335815 6.34898532 24.51685804 6 28 C4.65956125 31.68620656 2.79861984 33.37253301 -0.5 35.3125 C-6.65264756 38.10503007 -13.11990434 37.99494214 -19.4375 35.8125 C-23.21551557 33.14024509 -25.54366777 30.71124585 -26.75 26.1875 C-26.8325 25.465625 -26.915 24.74375 -27 24 C-25.3973218 23.89175157 -23.79254252 23.81429355 -22.1875 23.75 C-21.29417969 23.70359375 -20.40085937 23.6571875 -19.48046875 23.609375 C-16.21191606 24.12410771 -15.92185509 25.43752654 -14 28 C-11.49119384 28.48261667 -11.49119384 28.48261667 -8.8125 28.25 C-7.46091797 28.19585937 -7.46091797 28.19585937 -6.08203125 28.140625 C-5.39496094 28.09421875 -4.70789063 28.0478125 -4 28 C-4.495 25.525 -4.495 25.525 -5 23 C-5.86882812 22.81824219 -6.73765625 22.63648438 -7.6328125 22.44921875 C-22.53403141 19.19895288 -22.53403141 19.19895288 -26 14 C-26.67581494 10.26523324 -26.80786958 6.58235611 -25.0546875 3.1484375 C-18.58785339 -5.10796077 -8.52674753 -4.68135159 0 0 Z " fill="#0042B9" transform="translate(403,206)"/>
<path d="M0 0 C3.43332943 2.49084684 5.23412456 4.56201915 7.1875 8.3125 C7.1875 9.6325 7.1875 10.9525 7.1875 12.3125 C4.13305166 12.61195572 1.23247004 12.74970009 -1.8125 12.3125 C-4.5 9.8125 -4.5 9.8125 -6.8125 7.3125 C-10.25727978 6.89069023 -13.56880055 6.99099282 -16.8125 8.3125 C-18.45368502 13.23605507 -18.40657672 18.17995344 -17.8125 23.3125 C-16.07807234 26.799928 -16.07807234 26.799928 -12.8125 28.3125 C-9.9338665 28.60372362 -7.52501858 28.33044296 -4.8125 27.3125 C-4.338125 26.631875 -3.86375 25.95125 -3.375 25.25 C-1.8125 23.3125 -1.8125 23.3125 0.359375 23.05078125 C2.64732352 23.0614394 4.90634224 23.14033715 7.1875 23.3125 C6.76713821 28.07660024 4.5969261 31.1150112 1.1875 34.3125 C-4.01813923 37.66724528 -9.26901967 39.04204007 -15.3359375 37.79296875 C-21.45174956 35.78191343 -24.44770533 33.00099884 -27.75390625 27.53125 C-29.92175991 22.98755672 -30.57043465 18.30294612 -29.8125 13.3125 C-27.73854496 7.58115536 -25.25118539 2.42032023 -19.8125 -0.6875 C-13.08616263 -3.40390548 -6.4842341 -3.31848383 0 0 Z " fill="#0042B8" transform="translate(388.8125,269.6875)"/>
<path d="M0 0 C3.3 0 6.6 0 10 0 C10 14.52 10 29.04 10 44 C17.26 44 24.52 44 32 44 C32 46.64 32 49.28 32 52 C21.44 52 10.88 52 0 52 C0 34.84 0 17.68 0 0 Z " fill="#0045C0" transform="translate(205,254)"/>
<path d="M0 0 C3.63 0 7.26 0 11 0 C11 12.54 11 25.08 11 38 C7.37 38 3.74 38 0 38 C0 25.46 0 12.92 0 0 Z " fill="#003EAE" transform="translate(414,204)"/>
<path d="M0 0 C2 3 2 3 1.875 5.5 C0.79727556 8.57921269 -0.09025849 9.54512924 -3 11 C-6.37036311 10.75925978 -7.58798021 10.41201979 -10 8 C-10.32954432 4.90228335 -10.45334601 2.82668977 -8.9375 0.0625 C-5.78433176 -1.66665678 -3.37491745 -0.8590699 0 0 Z " fill="#0041B5" transform="translate(424,189)"/>
<path d="M0 0 C-0.48529412 6.43014706 -0.48529412 6.43014706 -2.75 8.9375 C-5.44963365 10.212327 -7.04916349 10.45397485 -10 10 C-11.875 8.8125 -11.875 8.8125 -13 7 C-13 4.4375 -13 4.4375 -12 2 C-8.14603706 -0.38038888 -4.4297131 -0.17371424 0 0 Z " fill="#000309" transform="translate(264,290)"/>
<path d="M0 0 C2.25 0.6875 2.25 0.6875 4 2 C4.66 3.65 5.32 5.3 6 7 C0.06 7 -5.88 7 -12 7 C-8.38945072 0.98241787 -6.84277588 -0.55859395 0 0 Z " fill="#000309" transform="translate(276,211)"/>
<path d="M0 0 C2 1.9375 2 1.9375 3 4 C3 4.66 3 5.32 3 6 C-2.61 6 -8.22 6 -14 6 C-12 1 -12 1 -10.375 -0.375 C-6.78897581 -1.31869058 -3.54777674 -1.06207329 0 0 Z " fill="#000208" transform="translate(360,212)"/>
</svg>
