<?xml version="1.0" encoding="UTF-8"?>
<!DOCTYPE svg PUBLIC "-//W3C//DTD SVG 1.1//EN" "http://www.w3.org/Graphics/SVG/1.1/DTD/svg11.dtd">
<svg xmlns="http://www.w3.org/2000/svg" version="1.1" width="1024px" height="1024px" style="shape-rendering:geometricPrecision; text-rendering:geometricPrecision; image-rendering:optimizeQuality; fill-rule:evenodd; clip-rule:evenodd" xmlns:xlink="http://www.w3.org/1999/xlink">
<g><path style="opacity:1" fill="#080605" d="M -0.5,-0.5 C 340.833,-0.5 682.167,-0.5 1023.5,-0.5C 1023.5,340.833 1023.5,682.167 1023.5,1023.5C 682.167,1023.5 340.833,1023.5 -0.5,1023.5C -0.5,682.167 -0.5,340.833 -0.5,-0.5 Z"/></g>
<g><path style="opacity:1" fill="#0046c1" d="M 210.5,359.5 C 255.238,360.378 300.071,361.378 345,362.5C 345.383,361.944 345.883,361.611 346.5,361.5C 341.036,379.729 335.869,398.062 331,416.5C 327.27,417.46 323.437,417.793 319.5,417.5C 282.992,416.235 246.325,416.402 209.5,418C 207.264,418.079 205.93,418.579 205.5,419.5C 178.9,426.921 159.733,443.254 148,468.5C 137.417,499.112 142.417,526.779 163,551.5C 169.805,557.804 177.305,563.137 185.5,567.5C 210.38,555.618 229.38,537.618 242.5,513.5C 231.404,512.814 219.737,512.147 207.5,511.5C 207.92,506.471 209.254,501.805 211.5,497.5C 215.469,485.977 219.469,473.81 223.5,461C 255.238,460.175 286.905,460.342 318.5,461.5C 307.092,500.724 296.092,540.058 285.5,579.5C 293.974,580.832 302.807,581.498 312,581.5C 321.707,581.134 331.207,581.134 340.5,581.5C 335.145,600.266 329.812,618.932 324.5,637.5C 291.338,636.502 258.004,636.168 224.5,636.5C 224.737,635.209 224.404,634.209 223.5,633.5C 226.418,622.996 229.418,612.496 232.5,602C 232.167,601.5 231.833,601 231.5,600.5C 216.833,608.833 202.167,617.167 187.5,625.5C 109.953,603.776 75.7862,552.776 85,472.5C 97.6197,417.545 130.786,381.378 184.5,364C 193.084,361.958 201.751,360.458 210.5,359.5 Z"/></g>
<g><path style="opacity:1" fill="#0053e3" d="M 210.5,359.5 C 256.179,358.838 301.512,359.505 346.5,361.5C 345.883,361.611 345.383,361.944 345,362.5C 300.071,361.378 255.238,360.378 210.5,359.5 Z"/></g>
<g><path style="opacity:1" fill="#0048c4" d="M 465.5,450.5 C 458.352,449.508 451.019,449.175 443.5,449.5C 443.5,444.5 443.5,439.5 443.5,434.5C 457.833,434.5 472.167,434.5 486.5,434.5C 486.5,451.833 486.5,469.167 486.5,486.5C 481.833,486.5 477.167,486.5 472.5,486.5C 472.662,484.473 472.495,482.473 472,480.5C 471.503,482.81 471.337,485.143 471.5,487.5C 476.833,487.5 482.167,487.5 487.5,487.5C 482.025,488.489 476.358,488.822 470.5,488.5C 470.666,484.154 470.499,479.821 470,475.5C 462.707,486.11 452.541,491.11 439.5,490.5C 415.656,489.144 400.156,477.144 393,454.5C 386.698,430.748 392.531,410.581 410.5,394C 424.591,384.588 439.924,381.921 456.5,386C 474.178,391.506 484.511,403.339 487.5,421.5C 480.468,421.83 473.468,421.497 466.5,420.5C 459.955,404.579 448.288,399.079 431.5,404C 422.007,408.162 416.174,415.329 414,425.5C 410.952,438.173 412.618,450.173 419,461.5C 428.616,471.908 440.116,474.408 453.5,469C 460.905,465.02 464.905,458.854 465.5,450.5 Z"/></g>
<g><path style="opacity:1" fill="#003c9c" d="M 834.5,401.5 C 834.5,396.167 834.5,390.833 834.5,385.5C 828.167,385.5 821.833,385.5 815.5,385.5C 815.5,390.833 815.5,396.167 815.5,401.5C 814.511,396.025 814.178,390.358 814.5,384.5C 821.5,384.5 828.5,384.5 835.5,384.5C 835.822,390.358 835.489,396.025 834.5,401.5 Z"/></g>
<g><path style="opacity:1" fill="#0061f8" d="M 834.5,401.5 C 828.167,401.5 821.833,401.5 815.5,401.5C 815.5,396.167 815.5,390.833 815.5,385.5C 821.833,385.5 828.167,385.5 834.5,385.5C 834.5,390.833 834.5,396.167 834.5,401.5 Z"/></g>
<g><path style="opacity:1" fill="#0045bf" d="M 816.5,386.5 C 822.167,386.5 827.833,386.5 833.5,386.5C 833.5,391.167 833.5,395.833 833.5,400.5C 827.833,400.5 822.167,400.5 816.5,400.5C 816.5,395.833 816.5,391.167 816.5,386.5 Z"/></g>
<g><path style="opacity:1" fill="#0048c6" d="M 571.5,440.5 C 570.515,444.634 570.182,448.968 570.5,453.5C 553.163,453.333 535.83,453.5 518.5,454C 516.585,456.185 516.418,458.685 518,461.5C 518.464,460.906 518.631,460.239 518.5,459.5C 521.861,472.523 530.194,477.356 543.5,474C 546.732,472.77 549.399,470.77 551.5,468C 557.491,467.501 563.491,467.334 569.5,467.5C 567.616,476.736 562.283,483.236 553.5,487C 532.545,494.679 515.712,489.512 503,471.5C 494.334,451.703 497.501,434.203 512.5,419C 527.633,409.346 542.966,409.012 558.5,418C 565.808,423.783 570.141,431.283 571.5,440.5 Z"/></g>
<g><path style="opacity:1" fill="#0047c3" d="M 650.5,436.5 C 649.503,452.992 649.17,469.658 649.5,486.5C 644.167,486.5 638.833,486.5 633.5,486.5C 633.067,470.5 632.567,454.5 632,438.5C 631.3,434.934 629.467,432.1 626.5,430C 625.563,429.308 624.897,429.475 624.5,430.5C 617.415,427.175 611.081,428.175 605.5,433.5C 605.19,432.262 604.69,432.262 604,433.5C 601.955,437.903 600.955,442.57 601,447.5C 600.313,460.516 600.48,473.516 601.5,486.5C 595.833,486.5 590.167,486.5 584.5,486.5C 584.5,461.833 584.5,437.167 584.5,412.5C 590.5,412.5 596.5,412.5 602.5,412.5C 602.504,416.254 602.337,419.921 602,423.5C 611.195,411.274 623.029,408.108 637.5,414C 645.826,419.148 650.16,426.648 650.5,436.5 Z"/></g>
<g><path style="opacity:1" fill="#0048c6" d="M 733.5,442.5 C 732.518,445.962 732.185,449.629 732.5,453.5C 714.659,453.17 696.992,453.503 679.5,454.5C 679.205,456.735 679.539,458.735 680.5,460.5C 684.1,472.474 692.1,476.974 704.5,474C 708.295,473.207 711.295,471.207 713.5,468C 719.528,467.17 725.528,467.336 731.5,468.5C 726.941,480.553 718.274,487.72 705.5,490C 679.713,492.369 664.546,480.869 660,455.5C 658.1,433.454 667.6,418.954 688.5,412C 706.357,408.719 720.19,414.552 730,429.5C 731.684,433.716 732.851,438.049 733.5,442.5 Z"/></g>
<g><path style="opacity:1" fill="#0049c7" d="M 740.5,468.5 C 740.5,467.5 740.5,466.5 740.5,465.5C 746.5,465.5 752.5,465.5 758.5,465.5C 760.852,472.426 765.685,475.76 773,475.5C 779.97,476.6 784.47,473.933 786.5,467.5C 786.594,465.088 785.594,463.255 783.5,462C 773.234,458.849 762.901,455.849 752.5,453C 739.956,445.013 737.456,434.513 745,421.5C 749.276,416.228 754.776,413.061 761.5,412C 769.564,411.137 777.564,411.47 785.5,413C 795.813,416.146 802.146,422.979 804.5,433.5C 798.167,434.833 791.833,434.833 785.5,433.5C 782.687,427.756 778.021,425.089 771.5,425.5C 765.35,424.835 761.35,427.335 759.5,433C 760.115,436.282 762.115,438.282 765.5,439C 774.992,440.698 784.325,443.032 793.5,446C 804.458,452.196 807.958,461.362 804,473.5C 799.061,483.569 790.894,489.069 779.5,490C 767.123,491.796 756.123,488.796 746.5,481C 743.015,477.531 741.015,473.364 740.5,468.5 Z"/></g>
<g><path style="opacity:1" fill="#0048c6" d="M 867.5,411.5 C 881.788,408.745 894.288,412.079 905,421.5C 907.644,425.121 909.477,429.121 910.5,433.5C 904.193,434.664 897.859,434.831 891.5,434C 888.665,427.577 883.665,424.743 876.5,425.5C 870.999,425.096 867.333,427.429 865.5,432.5C 865.745,435.168 867.079,437.002 869.5,438C 878.104,440.254 886.77,442.254 895.5,444C 909.808,449.117 914.642,458.95 910,473.5C 904.17,483.672 895.336,489.172 883.5,490C 872.958,491.225 863.291,488.892 854.5,483C 848.412,478.325 845.412,472.158 845.5,464.5C 851.509,464.334 857.509,464.501 863.5,465C 867.579,474.257 874.579,477.59 884.5,475C 893.387,472.292 894.72,467.625 888.5,461C 878.433,458.587 868.433,455.92 858.5,453C 846.955,446.365 843.788,436.865 849,424.5C 853.611,417.792 859.777,413.459 867.5,411.5 Z"/></g>
<g><path style="opacity:1" fill="#0056e3" d="M 319.5,417.5 C 281.481,417.829 243.481,418.495 205.5,419.5C 205.93,418.579 207.264,418.079 209.5,418C 246.325,416.402 282.992,416.235 319.5,417.5 Z"/></g>
<g><path style="opacity:1" fill="#080607" d="M 530.5,426.5 C 544.001,424.552 551.335,430.219 552.5,443.5C 541.167,443.5 529.833,443.5 518.5,443.5C 519.328,435.484 523.328,429.818 530.5,426.5 Z"/></g>
<g><path style="opacity:1" fill="#09070b" d="M 692.5,426.5 C 705.894,424.578 712.894,430.244 713.5,443.5C 702.5,443.5 691.5,443.5 680.5,443.5C 680.654,435.027 684.654,429.361 692.5,426.5 Z"/></g>
<g><path style="opacity:1" fill="#014bc9" d="M 584.5,412.5 C 584.5,437.167 584.5,461.833 584.5,486.5C 590.167,486.5 595.833,486.5 601.5,486.5C 600.48,473.516 600.313,460.516 601,447.5C 600.955,442.57 601.955,437.903 604,433.5C 604.69,432.262 605.19,432.262 605.5,433.5C 604.406,435.359 603.573,437.359 603,439.5C 602.5,455.83 602.333,472.163 602.5,488.5C 595.91,488.811 589.41,488.478 583,487.5C 582.833,475 582.667,462.5 582.5,450C 582.501,437.148 583.168,424.648 584.5,412.5 Z"/></g>
<g><path style="opacity:1" fill="#0065fa" d="M 487.5,487.5 C 482.167,487.5 476.833,487.5 471.5,487.5C 471.337,485.143 471.503,482.81 472,480.5C 472.495,482.473 472.662,484.473 472.5,486.5C 477.167,486.5 481.833,486.5 486.5,486.5C 486.5,469.167 486.5,451.833 486.5,434.5C 472.167,434.5 457.833,434.5 443.5,434.5C 443.5,439.5 443.5,444.5 443.5,449.5C 451.019,449.175 458.352,449.508 465.5,450.5C 457.833,450.5 450.167,450.5 442.5,450.5C 442.5,444.833 442.5,439.167 442.5,433.5C 457.5,433.5 472.5,433.5 487.5,433.5C 487.5,451.5 487.5,469.5 487.5,487.5 Z"/></g>
<g><path style="opacity:1" fill="#0052e1" d="M 571.5,440.5 C 571.5,445.5 571.5,450.5 571.5,455.5C 553.833,455.5 536.167,455.5 518.5,455.5C 518.5,456.833 518.5,458.167 518.5,459.5C 518.631,460.239 518.464,460.906 518,461.5C 516.418,458.685 516.585,456.185 518.5,454C 535.83,453.5 553.163,453.333 570.5,453.5C 570.182,448.968 570.515,444.634 571.5,440.5 Z"/></g>
<g><path style="opacity:1" fill="#005bf4" d="M 733.5,442.5 C 733.5,446.5 733.5,450.5 733.5,454.5C 715.5,454.5 697.5,454.5 679.5,454.5C 696.992,453.503 714.659,453.17 732.5,453.5C 732.185,449.629 732.518,445.962 733.5,442.5 Z"/></g>
<g><path style="opacity:1" fill="#00389f" d="M 679.5,454.5 C 697.5,454.5 715.5,454.5 733.5,454.5C 716.008,455.497 698.341,455.83 680.5,455.5C 680.5,457.167 680.5,458.833 680.5,460.5C 679.539,458.735 679.205,456.735 679.5,454.5 Z"/></g>
<g><path style="opacity:1" fill="#0056e6" d="M 816.5,412.5 C 822.833,412.5 829.167,412.5 835.5,412.5C 835.5,437.5 835.5,462.5 835.5,487.5C 829.167,487.5 822.833,487.5 816.5,487.5C 816.5,462.5 816.5,437.5 816.5,412.5 Z"/></g>
<g><path style="opacity:1" fill="#0046c0" d="M 817.5,414.5 C 822.833,414.5 828.167,414.5 833.5,414.5C 833.5,438.5 833.5,462.5 833.5,486.5C 828.167,486.5 822.833,486.5 817.5,486.5C 817.5,462.5 817.5,438.5 817.5,414.5 Z"/></g>
<g><path style="opacity:1" fill="#023ea4" d="M 758.5,465.5 C 752.5,465.5 746.5,465.5 740.5,465.5C 740.5,466.5 740.5,467.5 740.5,468.5C 739.566,467.432 739.232,466.099 739.5,464.5C 746.022,464.177 752.355,464.51 758.5,465.5 Z"/></g>
<g><path style="opacity:1" fill="#0053de" d="M 624.5,430.5 C 624.897,429.475 625.563,429.308 626.5,430C 629.467,432.1 631.3,434.934 632,438.5C 632.567,454.5 633.067,470.5 633.5,486.5C 638.833,486.5 644.167,486.5 649.5,486.5C 649.17,469.658 649.503,452.992 650.5,436.5C 650.5,453.833 650.5,471.167 650.5,488.5C 644.167,488.5 637.833,488.5 631.5,488.5C 631.667,472.497 631.5,456.497 631,440.5C 630.58,435.984 628.413,432.65 624.5,430.5 Z"/></g>
<g><path style="opacity:1" fill="#0058e6" d="M 318.5,461.5 C 286.905,460.342 255.238,460.175 223.5,461C 219.469,473.81 215.469,485.977 211.5,497.5C 214.52,484.753 217.853,472.087 221.5,459.5C 254.184,458.841 286.517,459.507 318.5,461.5 Z"/></g>
<g><path style="opacity:1" fill="#023993" d="M 207.5,511.5 C 219.737,512.147 231.404,512.814 242.5,513.5C 230.482,513.832 218.482,513.499 206.5,512.5C 206.624,511.893 206.957,511.56 207.5,511.5 Z"/></g>
<g><path style="opacity:1" fill="#0046c0" d="M 419.5,592.5 C 419.5,592.833 419.5,593.167 419.5,593.5C 435.325,594.496 451.325,594.83 467.5,594.5C 467.5,599.833 467.5,605.167 467.5,610.5C 445.167,610.5 422.833,610.5 400.5,610.5C 400.5,577.5 400.5,544.5 400.5,511.5C 406.167,511.5 411.833,511.5 417.5,511.5C 416.842,538.854 417.509,565.854 419.5,592.5 Z"/></g>
<g><path style="opacity:1" fill="#0047c2" d="M 804.5,547.5 C 813.133,536.795 824.133,533.629 837.5,538C 847.916,542.323 853.25,550.156 853.5,561.5C 852.784,563.556 852.117,565.723 851.5,568C 852.49,582.088 852.824,596.255 852.5,610.5C 846.833,610.5 841.167,610.5 835.5,610.5C 835.829,595.324 835.496,580.324 834.5,565.5C 830.478,553.504 822.478,550.17 810.5,555.5C 809.504,555.414 808.671,555.748 808,556.5C 806.725,558.717 805.725,561.051 805,563.5C 804.5,579.163 804.333,594.83 804.5,610.5C 798.833,610.5 793.167,610.5 787.5,610.5C 787.5,577.833 787.5,545.167 787.5,512.5C 792.833,512.5 798.167,512.5 803.5,512.5C 803.172,524.345 803.505,536.012 804.5,547.5 Z"/></g>
<g><path style="opacity:1" fill="#005cef" d="M 804.5,511.5 C 804.5,523.5 804.5,535.5 804.5,547.5C 803.505,536.012 803.172,524.345 803.5,512.5C 798.167,512.5 792.833,512.5 787.5,512.5C 787.5,545.167 787.5,577.833 787.5,610.5C 793.167,610.5 798.833,610.5 804.5,610.5C 804.333,594.83 804.5,579.163 805,563.5C 805.725,561.051 806.725,558.717 808,556.5C 808.671,555.748 809.504,555.414 810.5,555.5C 808.486,558.194 806.986,561.194 806,564.5C 805.5,580.497 805.333,596.497 805.5,612.5C 799.167,612.5 792.833,612.5 786.5,612.5C 786.5,586.833 786.5,561.167 786.5,535.5C 786.5,527.5 786.5,519.5 786.5,511.5C 792.5,511.5 798.5,511.5 804.5,511.5 Z"/></g>
<g><path style="opacity:1" fill="#00286d" d="M 804.5,511.5 C 798.5,511.5 792.5,511.5 786.5,511.5C 786.5,519.5 786.5,527.5 786.5,535.5C 785.507,527.35 785.174,519.017 785.5,510.5C 792.022,510.177 798.355,510.51 804.5,511.5 Z"/></g>
<g><path style="opacity:1" fill="#0049c6" d="M 497.5,536.5 C 506.226,536.161 514.893,536.661 523.5,538C 533.431,541.265 538.931,548.098 540,558.5C 540.285,576.179 540.785,593.846 541.5,611.5C 535.167,611.5 528.833,611.5 522.5,611.5C 522.665,608.482 522.498,605.482 522,602.5C 516.639,610.743 508.972,614.41 499,613.5C 476.5,611.815 469.167,600.482 477,579.5C 480.605,575.279 485.105,572.446 490.5,571C 499.439,569.01 508.439,567.343 517.5,566C 521.292,563.947 522.458,560.781 521,556.5C 519.891,554.185 518.057,552.685 515.5,552C 510.833,551.333 506.167,551.333 501.5,552C 497.387,553.406 495.053,556.239 494.5,560.5C 488.833,560.5 483.167,560.5 477.5,560.5C 477.446,552.355 480.78,545.855 487.5,541C 490.893,539.38 494.226,537.88 497.5,536.5 Z"/></g>
<g><path style="opacity:1" fill="#0047c2" d="M 700.5,560.5 C 699.503,576.992 699.17,593.658 699.5,610.5C 694.167,610.5 688.833,610.5 683.5,610.5C 683.667,596.163 683.5,581.829 683,567.5C 682.879,563.958 681.713,560.958 679.5,558.5C 674.435,553.824 668.435,552.324 661.5,554C 658.379,554.967 656.046,556.8 654.5,559.5C 653.124,559.747 652.29,561.081 652,563.5C 651.5,579.163 651.333,594.83 651.5,610.5C 646.167,610.5 640.833,610.5 635.5,610.5C 635.5,586.5 635.5,562.5 635.5,538.5C 640.833,538.5 646.167,538.5 651.5,538.5C 651.19,541.713 651.523,544.713 652.5,547.5C 655.848,542.328 660.515,538.828 666.5,537C 686.461,532.788 697.794,540.622 700.5,560.5 Z"/></g>
<g><path style="opacity:1" fill="#0048c6" d="M 736.5,536.5 C 756.48,532.735 770.313,540.068 778,558.5C 778.494,560.134 778.66,561.801 778.5,563.5C 771.833,563.5 765.167,563.5 758.5,563.5C 758.216,557.713 755.216,554.213 749.5,553C 741.565,550.72 735.731,553.22 732,560.5C 728.707,570.153 728.707,579.819 732,589.5C 737.358,597.932 744.524,599.765 753.5,595C 756.359,592.448 758.026,589.281 758.5,585.5C 765.167,585.5 771.833,585.5 778.5,585.5C 776.622,600.544 768.289,609.711 753.5,613C 733.048,616.196 718.881,608.363 711,589.5C 705.868,572.82 709.035,557.987 720.5,545C 725.483,541.344 730.816,538.511 736.5,536.5 Z"/></g>
<g><path style="opacity:1" fill="#0047c2" d="M 572.5,581.5 C 574.301,594.068 581.301,598.568 593.5,595C 596.746,593.258 599.079,590.758 600.5,587.5C 601.876,587.253 602.71,585.919 603,583.5C 603.5,568.504 603.667,553.504 603.5,538.5C 608.833,538.5 614.167,538.5 619.5,538.5C 619.5,562.5 619.5,586.5 619.5,610.5C 614.167,610.5 608.833,610.5 603.5,610.5C 603.665,607.482 603.498,604.482 603,601.5C 602.819,604.695 602.319,607.695 601.5,610.5C 601.664,607.813 601.497,605.146 601,602.5C 595.89,609.973 588.723,613.64 579.5,613.5C 566.204,613.522 557.87,607.188 554.5,594.5C 555.497,576.007 555.83,557.341 555.5,538.5C 560.833,538.5 566.167,538.5 571.5,538.5C 571.165,554.217 571.498,568.55 572.5,581.5 Z"/></g>
<g><path style="opacity:1" fill="#0050d7" d="M 419.5,592.5 C 417.509,565.854 416.842,538.854 417.5,511.5C 411.833,511.5 406.167,511.5 400.5,511.5C 400.5,544.5 400.5,577.5 400.5,610.5C 422.833,610.5 445.167,610.5 467.5,610.5C 467.5,605.167 467.5,599.833 467.5,594.5C 451.325,594.83 435.325,594.496 419.5,593.5C 436.167,593.5 452.833,593.5 469.5,593.5C 469.5,599.833 469.5,606.167 469.5,612.5C 445.833,612.5 422.167,612.5 398.5,612.5C 398.5,578.167 398.5,543.833 398.5,509.5C 405.5,509.5 412.5,509.5 419.5,509.5C 419.5,537.167 419.5,564.833 419.5,592.5 Z"/></g>
<g><path style="opacity:1" fill="#0056e6" d="M 572.5,581.5 C 571.498,568.55 571.165,554.217 571.5,538.5C 566.167,538.5 560.833,538.5 555.5,538.5C 555.83,557.341 555.497,576.007 554.5,594.5C 553.538,575.534 553.204,556.534 553.5,537.5C 559.833,537.5 566.167,537.5 572.5,537.5C 572.5,552.167 572.5,566.833 572.5,581.5 Z"/></g>
<g><path style="opacity:1" fill="#005bf2" d="M 601.5,610.5 C 602.319,607.695 602.819,604.695 603,601.5C 603.498,604.482 603.665,607.482 603.5,610.5C 608.833,610.5 614.167,610.5 619.5,610.5C 619.5,586.5 619.5,562.5 619.5,538.5C 614.167,538.5 608.833,538.5 603.5,538.5C 603.667,553.504 603.5,568.504 603,583.5C 602.71,585.919 601.876,587.253 600.5,587.5C 601.457,570.868 601.79,554.201 601.5,537.5C 607.833,537.5 614.167,537.5 620.5,537.5C 620.5,562.167 620.5,586.833 620.5,611.5C 613.978,611.823 607.645,611.49 601.5,610.5 Z"/></g>
<g><path style="opacity:1" fill="#0053e0" d="M 285.5,579.5 C 304.197,578.846 322.53,579.513 340.5,581.5C 331.207,581.134 321.707,581.134 312,581.5C 302.807,581.498 293.974,580.832 285.5,579.5 Z"/></g>
<g><path style="opacity:1" fill="#080606" d="M 520.5,576.5 C 523.386,589.634 518.053,596.967 504.5,598.5C 493.795,597.919 491.129,593.086 496.5,584C 504.651,581.602 512.651,579.102 520.5,576.5 Z"/></g>
<g><path style="opacity:1" fill="#0057ea" d="M 679.5,558.5 C 681.713,560.958 682.879,563.958 683,567.5C 683.5,581.829 683.667,596.163 683.5,610.5C 688.833,610.5 694.167,610.5 699.5,610.5C 699.17,593.658 699.503,576.992 700.5,560.5C 700.5,577.5 700.5,594.5 700.5,611.5C 694.167,611.5 687.833,611.5 681.5,611.5C 681.667,595.497 681.5,579.497 681,563.5C 680.392,561.846 679.892,560.179 679.5,558.5 Z"/></g>
<g><path style="opacity:1" fill="#0059e9" d="M 652.5,547.5 C 651.523,544.713 651.19,541.713 651.5,538.5C 646.167,538.5 640.833,538.5 635.5,538.5C 635.5,562.5 635.5,586.5 635.5,610.5C 640.833,610.5 646.167,610.5 651.5,610.5C 651.333,594.83 651.5,579.163 652,563.5C 652.29,561.081 653.124,559.747 654.5,559.5C 654.108,561.179 653.608,562.846 653,564.5C 652.5,580.163 652.333,595.83 652.5,611.5C 646.167,611.5 639.833,611.5 633.5,611.5C 633.5,586.833 633.5,562.167 633.5,537.5C 639.833,537.5 646.167,537.5 652.5,537.5C 652.5,540.833 652.5,544.167 652.5,547.5 Z"/></g>
<g><path style="opacity:1" fill="#0059e8" d="M 853.5,561.5 C 853.5,578.5 853.5,595.5 853.5,612.5C 847.167,612.5 840.833,612.5 834.5,612.5C 834.5,596.833 834.5,581.167 834.5,565.5C 835.496,580.324 835.829,595.324 835.5,610.5C 841.167,610.5 846.833,610.5 852.5,610.5C 852.824,596.255 852.49,582.088 851.5,568C 852.117,565.723 852.784,563.556 853.5,561.5 Z"/></g>
<g><path style="opacity:1" fill="#004fd3" d="M 223.5,633.5 C 224.404,634.209 224.737,635.209 224.5,636.5C 258.004,636.168 291.338,636.502 324.5,637.5C 290.671,638.498 256.671,638.832 222.5,638.5C 222.366,636.708 222.699,635.042 223.5,633.5 Z"/></g>
</svg>
